HIERARCHY
ROOT Hips
{
	OFFSET	25.1661	58.2345	-36.1134
	CHANNELS 6 Xposition Yposition Zposition Zrotation Yrotation Xrotation
	JOINT Chest
	{
		OFFSET	0.0000	16.3830	0.0000
		CHANNELS 3 Zrotation Yrotation Xrotation
		JOINT LeftCollar
		{
			OFFSET	3.8100	32.7660	-3.8100
			CHANNELS 3 Zrotation Yrotation Xrotation
			JOINT LeftUpArm
			{
				OFFSET	14.5367	0.0000	3.8951
				CHANNELS 3 Zrotation Yrotation Xrotation
				JOINT LeftLowArm
				{
					OFFSET	30.2895	0.0000	0.0000
					CHANNELS 3 Zrotation Yrotation Xrotation
					JOINT LeftHand
					{
						OFFSET	27.2415	0.0000	0.0000
						CHANNELS 3 Zrotation Yrotation Xrotation
						End Site
						{
							OFFSET	20.3835	0.0000	0.0000
						}
					}
				}
			}
		}
		JOINT Neck
		{
			OFFSET	0.0000	32.7660	0.0000
			CHANNELS 3 Zrotation Yrotation Xrotation
			JOINT Head
			{
				OFFSET	0.0000	19.6215	0.0000
				CHANNELS 3 Zrotation Yrotation Xrotation
				End Site
				{
					OFFSET	0.0000	0.0000	10.1600
				}
			}
		}
		JOINT RightCollar
		{
			OFFSET	-3.8100	32.7660	-3.8100
			CHANNELS 3 Zrotation Yrotation Xrotation
			JOINT RightUpArm
			{
				OFFSET	-14.5367	0.0000	3.8951
				CHANNELS 3 Zrotation Yrotation Xrotation
				JOINT RightLowArm
				{
					OFFSET	-30.2895	0.0000	0.0000
					CHANNELS 3 Zrotation Yrotation Xrotation
					JOINT RightHand
					{
						OFFSET	-27.2415	0.0000	0.0000
						CHANNELS 3 Zrotation Yrotation Xrotation
						End Site
						{
							OFFSET	-20.3835	0.0000	0.0000
						}
					}
				}
			}
		}
	}
	JOINT LeftUpLeg
	{
		OFFSET	9.3345	0.0000	0.0000
		CHANNELS 3 Zrotation Yrotation Xrotation
		JOINT LeftLowLeg
		{
			OFFSET	0.0000	-45.5295	0.0000
			CHANNELS 3 Zrotation Yrotation Xrotation
			JOINT LeftFoot
			{
				OFFSET	0.0000	-44.1960	0.0000
				CHANNELS 3 Zrotation Yrotation Xrotation
				End Site
				{
					OFFSET	0.0000	0.0000	26.4795
				}
			}
		}
	}
	JOINT RightUpLeg
	{
		OFFSET	-9.3345	0.0000	0.0000
		CHANNELS 3 Zrotation Yrotation Xrotation
		JOINT RightLowLeg
		{
			OFFSET	0.0000	-45.5295	0.0000
			CHANNELS 3 Zrotation Yrotation Xrotation
			JOINT RightFoot
			{
				OFFSET	0.0000	-44.1960	0.0000
				CHANNELS 3 Zrotation Yrotation Xrotation
				End Site
				{
					OFFSET	0.0000	0.0000	26.4795
				}
			}
		}
	}
}
MOTION
Frames: 25
Frame Time: 0.0166666666667
41.9354	85.8393	-30.4323	-5.2917	4.6579	-2.6979	8.8943	-4.0083	-6.6069	-2.9350	12.5382	2.0619	-68.8680	-81.4566	50.9596	107.8813	-63.3891	-99.9144	29.1975	-33.8573	-32.9397	-4.1745	16.4122	9.3637	-4.1745	16.4122	9.3637	-2.5997	5.7351	4.1784	0.9372	39.5856	-67.1837	-106.2506	47.8739	-82.8899	-60.0109	-34.5433	-29.0998	7.0205	6.7600	-21.9706	-8.5758	-6.5466	21.4670	4.5083	5.8144	4.9126	-16.0161	0.3913	-3.7509	3.7136	-14.2488	52.7622	10.5822	-8.4360	24.9473	
41.6901	86.3217	-28.9866	-5.7063	6.0844	-2.8991	8.5137	-1.3664	-5.8206	-3.0257	10.7984	1.5227	-63.8545	-79.7041	44.8457	108.9840	-65.0735	-101.0455	26.9363	-31.7276	-30.6237	-4.0548	14.6408	9.4240	-4.0548	14.6408	9.4240	-2.6079	6.3844	3.7206	-0.3364	40.0075	-67.2435	-104.2708	46.8592	-80.8704	-59.4981	-32.0821	-28.7999	6.9901	7.6059	-21.3399	-8.2078	-6.7257	21.0381	4.4189	3.4887	4.8556	-15.6795	0.8811	-4.4028	3.1281	-15.8349	53.0452	9.6733	-10.0893	23.3936	
41.4460	86.6036	-28.1588	-6.7972	9.9111	-3.2722	9.0764	-2.9997	-5.7236	-3.5844	14.5206	1.3882	-77.4653	-79.6642	58.4021	114.6129	-65.6802	-107.1497	25.3660	-30.8502	-29.0814	-4.1951	14.0595	9.7223	-4.1951	14.0595	9.7223	-2.8059	8.9395	3.5217	-2.4462	43.1972	-66.4674	-103.6061	45.3137	-74.6141	-57.9482	-33.9811	-29.7498	7.3934	5.9061	-20.9745	-8.2527	-8.3032	20.6199	4.3427	2.7608	4.8481	-14.8536	-0.4816	-4.6346	2.4246	-18.0420	53.2730	8.9203	-11.3725	21.8647	
41.3697	86.9824	-26.9886	-7.6790	12.9790	-3.2530	9.0313	0.0943	-4.9466	-3.8214	10.2395	0.4126	-71.5826	-78.3988	51.9316	113.0085	-67.3918	-104.9590	25.9031	-32.0449	-30.6114	-4.1333	11.3484	9.6298	-4.1333	11.3484	9.6298	-2.9760	5.9033	2.4872	-4.0177	45.9965	-65.6133	-96.4429	44.3638	-73.8766	-59.9312	-23.5557	-29.0795	7.4806	5.7674	-20.7706	-7.6403	-8.6938	19.9476	4.1475	-0.0122	4.6815	-14.2363	-2.0630	-5.0118	1.9137	-19.5285	53.1174	7.8940	-12.2667	19.2884	
41.1865	87.3728	-25.8086	-8.5795	16.0205	-3.3728	9.4003	0.1076	-4.7867	-4.5107	14.0911	0.3070	-97.7557	-79.0433	79.0508	108.8222	-68.7092	-99.9377	25.8881	-32.5165	-30.9628	-4.0942	10.1738	9.5597	-4.0942	10.1738	9.5597	-3.2303	10.2333	2.4329	-5.4247	45.0732	-64.5472	-92.2814	43.2420	-69.3606	-50.5584	-33.1842	-32.5563	7.6902	5.2962	-20.6092	-7.1696	-9.3129	19.3241	3.9108	-2.1737	4.6082	-13.6138	-4.5643	-4.7274	1.7292	-20.0643	52.8981	7.2779	-12.4548	17.0999	
40.9957	87.7160	-24.7438	-9.3855	18.5673	-3.8033	9.5123	3.3078	-3.7596	-4.9374	12.1919	-0.1929	-86.5337	-77.9912	67.5826	117.6671	-68.9515	-109.3151	26.6575	-33.2852	-32.1623	-3.9466	7.5494	9.3259	-3.9466	7.5494	9.3259	-3.4136	9.7834	1.9774	-6.7589	46.0462	-62.7130	-85.2931	41.7781	-64.3178	-50.1662	-28.5588	-33.1591	7.7059	6.4136	-19.8163	-7.0429	-11.2115	18.3438	3.7159	-4.1686	4.7773	-13.1008	-6.7394	-4.1452	0.9665	-20.0199	50.5816	7.1510	-12.4630	18.9022	
40.7702	88.1102	-23.6265	-10.0973	20.8233	-4.3476	9.7461	5.0439	-3.0315	-5.2777	12.1056	-0.4082	-89.9116	-77.6058	71.3345	118.6979	-69.4899	-109.8996	24.0371	-31.8764	-28.9832	-3.8403	5.9344	9.2678	-3.8403	5.9344	9.2678	-3.4707	7.5537	1.5552	-8.3749	50.4470	-59.7786	-80.1007	38.1944	-58.6196	-47.2839	-26.8791	-33.6456	7.9871	6.0457	-19.3060	-6.7894	-11.5012	17.5929	3.6167	-5.9240	4.9079	-13.1318	-4.2156	-5.7954	0.0476	-23.8830	51.4533	6.7771	-11.4768	14.5491	
40.6704	88.3441	-22.9783	-10.5246	22.8099	-4.7311	9.6777	7.3642	-2.2292	-5.5172	11.6810	-0.8021	-96.5279	-77.1890	78.3348	119.8042	-69.7904	-110.7407	22.8731	-31.6151	-28.0284	-3.6504	4.1126	9.2151	-3.6504	4.1126	9.2151	-3.7871	10.3043	1.7222	-9.3563	47.9044	-57.1582	-73.8225	34.8732	-52.9490	-36.8009	-27.1020	-31.8303	8.0320	6.4174	-18.7000	-6.8219	-12.8271	16.9435	3.4418	-7.0655	4.9781	-13.5632	-3.2221	-5.6035	1.2948	-25.7468	49.1826	6.3760	-11.7159	13.7072	
40.4994	88.5832	-22.0741	-10.7999	24.6629	-5.0048	9.4521	9.1531	-1.6851	-5.6041	11.2760	-1.1990	-100.5936	-76.5579	82.6118	118.1141	-70.6582	-108.2391	24.0839	-32.9737	-30.1595	-3.3634	2.5558	9.2909	-3.3634	2.5558	9.2909	-4.1956	11.6286	1.5639	-10.8426	45.9616	-55.9180	-69.3184	31.8120	-48.8968	-31.2931	-25.5460	-31.1226	7.7119	6.4831	-18.7584	-6.3434	-13.3563	16.7563	3.1251	-8.6207	5.0381	-13.8991	-3.2043	-5.7379	2.1538	-26.5310	47.2980	6.1518	-11.6470	12.3656	
40.2435	88.6348	-21.7063	-11.1130	26.2262	-5.3708	9.2473	10.4989	-1.3681	-5.5783	11.5957	-1.5419	-99.3773	-75.7538	81.0573	122.1278	-71.2694	-112.0831	19.7285	-31.3088	-26.0305	-3.1202	1.1946	9.3827	-3.1202	1.1946	9.3827	-3.9129	11.9562	1.6167	-13.8650	44.4042	-59.5631	-35.2726	31.7545	-29.6332	-23.1361	-10.5499	-30.3692	7.5357	6.2959	-18.9169	-6.2621	-14.2162	16.9672	3.0966	-9.2058	4.9792	-14.1104	-3.1158	-6.1697	2.6284	-27.1742	45.7930	5.9786	-11.4649	10.9284	
40.0965	88.6326	-21.4878	-11.7191	27.9383	-5.8297	9.0372	11.4905	-1.4379	-5.3959	10.9731	-1.7854	-98.8756	-75.4514	79.4516	123.2827	-72.2787	-112.8232	19.1426	-31.5442	-26.5913	-2.5342	0.0444	9.8706	-2.5342	0.0444	9.8706	-3.2935	10.2061	1.7017	-14.8497	48.8619	-60.4959	-24.4270	28.7285	-21.3195	-9.2499	-6.7279	-25.7878	7.8449	5.6983	-18.7593	-5.9203	-14.3349	16.7744	2.9117	-10.3326	4.8441	-14.1133	-3.5033	-6.3517	3.0309	-27.7687	44.7012	5.9398	-11.2585	9.6171	
39.9127	88.7776	-20.8422	-12.3326	29.5442	-6.3961	8.8002	11.6350	-1.5330	-5.2521	12.3256	-2.0568	-104.2253	-75.0541	84.3951	121.9921	-71.9478	-111.0539	17.5963	-31.4999	-26.9795	-1.9761	-0.7516	10.1690	-1.9761	-0.7516	10.1690	-2.8840	13.4026	0.5846	-12.3613	47.7115	-54.2203	-21.2560	25.8378	-21.6659	8.1286	-4.7773	-22.5793	8.2265	4.4847	-18.5830	-5.5175	-14.0510	16.7539	2.7996	-11.1711	4.6075	-13.9954	-4.4052	-6.0444	3.2455	-27.1476	42.1417	6.3987	-10.9683	8.6308	
39.8488	88.8994	-20.2306	-12.9485	31.1727	-7.2786	8.1820	12.6603	-1.4284	-4.3835	10.7170	-1.9375	-99.1040	-75.5026	78.9214	124.2795	-71.4376	-113.5284	16.3366	-30.8366	-26.3211	-1.1779	-2.1144	10.3353	-1.1779	-2.1144	10.3353	-2.1089	13.1469	-0.0246	-11.4676	46.6623	-51.5020	-17.3792	24.5030	-21.4871	17.4912	-4.1961	-19.5509	8.7890	4.9216	-17.5453	-5.7459	-15.4292	16.4162	2.6781	-11.9532	4.2584	-13.8339	-5.6153	-5.2363	3.2607	-26.7128	41.0626	6.7273	-10.8616	8.1931	
39.6396	89.1823	-18.8751	-13.5506	32.8108	-8.1148	8.0124	12.8484	-1.0269	-4.2470	11.8692	-2.3951	-102.7866	-75.1133	82.7190	126.2137	-70.3123	-115.3437	15.2913	-30.2475	-26.8585	-0.6533	-3.1534	10.2450	-0.6533	-3.1534	10.2450	-2.2960	12.5280	-0.2758	-10.3762	51.2058	-44.0752	-0.4109	19.4353	-17.1352	2.9812	0.7747	-15.0782	9.2208	4.2815	-16.8614	-5.8671	-16.1415	16.1278	2.6649	-12.3039	4.1931	-14.6931	-3.6882	-5.5058	3.9299	-29.1664	39.4146	6.6665	-11.9837	10.0666	
39.6566	89.3559	-18.0668	-14.1814	34.3134	-8.4542	7.7906	13.1408	-0.9696	-4.2008	11.7288	-2.8714	-102.7460	-75.2003	82.5313	125.6537	-69.2634	-114.3565	14.6405	-30.3939	-28.7170	-0.2730	-4.0200	10.1024	-0.2730	-4.0200	10.1024	-3.3482	12.1624	-0.1828	-8.0622	53.5502	-37.1342	-0.1546	17.5394	-15.0717	3.1858	-1.9092	-16.7232	9.4941	3.8821	-16.6327	-5.1972	-16.0326	15.5757	2.2475	-13.6486	4.1283	-14.9473	-3.6579	-5.6101	4.0682	-29.9472	37.7503	7.3334	-10.3669	7.3677	
39.5375	89.5506	-17.2167	-14.9068	35.8663	-8.6820	7.8768	12.7577	-1.2242	-4.2077	11.1982	-3.0356	-99.4940	-75.3364	79.2109	125.3077	-68.3146	-114.0384	13.2532	-30.0299	-29.2610	-0.1337	-4.5073	10.0800	-0.1337	-4.5073	10.0800	-4.6553	12.5774	0.5360	-6.9800	53.4941	-35.2128	2.6972	18.2282	-11.6637	-0.6798	-3.6569	-21.2791	9.8058	2.9913	-16.7976	-4.8547	-16.2280	15.2011	2.0154	-14.1665	4.1750	-14.9144	-4.1285	-5.6963	4.1083	-30.6702	37.0565	7.4177	-9.6033	6.1515	
39.5293	89.6891	-16.6619	-15.6490	37.3425	-9.3121	8.1859	11.7408	-1.1570	-4.4747	13.0989	-3.0392	-102.9359	-75.1614	82.7443	126.8951	-67.6158	-116.0099	12.7968	-30.1457	-29.7230	-0.1147	-4.6806	10.0962	-0.1147	-4.6806	10.0962	-5.3480	13.7928	1.4584	-2.6561	57.8821	-23.9247	-1.3459	16.3675	-21.1153	0.6331	-9.6101	-26.1735	10.2813	2.9607	-16.3305	-4.8123	-17.3606	14.6891	1.8127	-14.5721	4.1102	-14.7483	-3.9733	-5.2178	4.0988	-31.8175	36.0631	6.8167	-8.4781	4.9087	
39.4092	89.8935	-15.7183	-16.0811	38.5273	-10.0185	8.6786	13.2611	-0.0409	-5.1237	11.2857	-3.5424	-103.2809	-75.1358	82.9461	125.1191	-67.2423	-113.9570	11.4258	-29.3714	-30.6242	-0.1528	-5.9681	9.7875	-0.1528	-5.9681	9.7875	-6.1590	12.8577	1.8376	-1.1485	58.2955	-21.8413	-2.6044	15.3884	-23.6819	5.2342	-11.2751	-28.5611	10.6687	2.5808	-15.8607	-4.7279	-18.0276	14.3761	1.5463	-14.7787	4.1261	-14.8470	-3.4809	-4.5893	5.1895	-31.0183	31.4515	6.3164	-10.1026	7.2921	
39.0855	89.9906	-15.0184	-16.0723	38.8963	-10.1474	8.8065	13.5863	0.2432	-5.5843	12.0241	-3.4974	-106.5097	-75.1055	86.0359	124.3181	-67.2376	-113.1350	10.8767	-29.3053	-30.7620	-0.2593	-6.2942	9.7050	-0.2593	-6.2942	9.7050	-6.2566	14.0628	2.3521	2.9566	60.9421	-21.7860	1.5880	15.7635	-25.7588	0.9524	-11.3253	-18.8952	10.8093	2.7627	-15.7388	-4.7403	-18.6241	14.2651	1.3357	-14.7035	4.1949	-15.2328	-2.6494	-4.7553	5.8257	-31.0169	29.7936	5.7751	-9.5256	6.9225	
38.7001	90.0030	-14.6479	-16.4667	40.0876	-10.5587	9.5555	14.5100	0.8908	-6.4930	11.5603	-3.4126	-112.1508	-75.0438	91.7233	123.1249	-67.0011	-111.6805	10.8618	-29.1553	-31.1686	-0.5765	-7.3678	9.3802	-0.5765	-7.3678	9.3802	-6.7752	13.5611	2.4758	6.7986	63.2866	-22.9125	3.1755	14.7669	-21.2508	0.3032	-11.1047	-14.8835	11.1498	1.7498	-15.9919	-4.6832	-18.8740	14.6663	1.1611	-14.6469	3.8631	-15.4171	-2.8737	-4.6686	6.5118	-30.5878	27.9909	5.4392	-9.4927	7.1736	
38.3544	89.9971	-14.0696	-16.8898	40.7905	-10.7290	10.1409	15.4564	1.2110	-7.0944	11.0806	-3.3207	-113.9284	-75.0361	92.8806	123.3483	-67.1641	-111.9079	11.0281	-29.2512	-31.7733	-0.7963	-8.1458	9.1106	-0.7963	-8.1458	9.1106	-6.8431	13.0040	2.5030	10.5267	65.9187	-23.4796	2.5610	12.7303	-16.4526	1.0444	-11.1408	-13.1534	11.6253	1.2255	-16.2982	-4.5352	-19.2080	14.9776	1.0215	-14.5487	3.4779	-15.3982	-2.9164	-4.8786	6.9257	-30.3774	26.9504	5.2169	-8.2305	6.3491	
37.9631	90.0303	-13.3892	-17.3031	41.4241	-10.9384	10.5054	16.4601	1.5855	-7.3934	10.2394	-3.3005	-113.5413	-74.8087	92.4395	123.6185	-66.8571	-112.0291	11.0170	-29.5657	-32.2749	-0.8780	-8.9253	8.8249	-0.8780	-8.9253	8.8249	-6.6364	12.8419	2.8168	15.7890	68.4503	-20.7067	6.4904	12.5542	-9.3959	0.7818	-12.0133	-13.2908	12.1728	0.7160	-16.4555	-4.3864	-19.5893	15.3435	0.7176	-14.3628	2.8863	-15.4892	-2.6184	-4.8997	8.0449	-29.3652	24.6139	5.0706	-8.7348	6.6833	
37.6112	90.0813	-12.4949	-17.6712	42.2472	-11.3806	10.6814	17.1994	2.3097	-7.5011	9.4270	-3.3972	-113.9542	-74.6497	93.0557	122.3323	-66.4484	-110.6280	10.7898	-29.8783	-33.0633	-0.8746	-9.6554	8.4781	-0.8746	-9.6554	8.4781	-6.5561	12.4495	2.8665	22.5191	69.4851	-13.2731	6.6238	12.6191	-9.2566	0.4382	-12.6074	-12.9447	12.7948	-0.0725	-16.2870	-4.4908	-19.7483	15.5397	0.6705	-14.2884	2.3910	-15.6713	-2.3555	-4.4758	9.1918	-28.6850	22.9427	4.9369	-9.9961	7.0614	
37.3773	90.1364	-11.5627	-18.0402	42.9926	-11.7959	10.7245	18.0183	3.1062	-7.4525	9.2380	-3.3285	-117.1580	-74.4378	96.4164	121.7227	-66.1598	-109.8939	10.3779	-29.8389	-33.6468	-0.7736	-10.3791	8.1021	-0.7736	-10.3791	8.1021	-6.5510	11.9311	2.6483	29.8434	70.3401	-2.9425	6.1290	12.8814	-12.4890	-0.3331	-13.1749	-11.8840	13.2546	-0.7761	-16.1359	-4.4138	-19.8789	15.8085	0.4709	-14.2345	1.8336	-15.7290	-2.4128	-4.1945	10.0722	-28.0299	21.2077	5.0890	-8.6284	6.1533	
37.2643	90.1872	-10.6641	-18.4535	43.6883	-12.1091	10.7549	18.7002	3.8941	-7.4487	8.2119	-3.8491	-115.7376	-74.2538	94.8638	121.5050	-66.0486	-109.6464	9.6423	-29.5380	-33.8211	-0.6213	-11.0089	7.6952	-0.6213	-11.0089	7.6952	-6.5756	11.0546	2.0821	36.7379	71.3567	7.5121	6.7597	13.2401	-15.6437	0.1200	-13.6224	-10.4389	13.5510	-1.4624	-16.1785	-4.1576	-19.8051	15.9932	0.3337	-14.4118	1.4234	-15.6039	-2.8872	-4.0413	10.6154	-27.4349	19.7520	5.1466	-8.7436	6.6411	
